<svg xmlns="http://www.w3.org/2000/svg" xmlns:xlink="http://www.w3.org/1999/xlink" fill="none" version="1.1" width="68" height="65" viewBox="0 0 68 65"><defs><clipPath id="master_svg0_44_47"><rect x="0" y="0" width="68" height="65" rx="0"/></clipPath></defs><g clip-path="url(#master_svg0_44_47)"><g><path d="M8.005577,49.7499L8.005612,49.75Q8.029442,49.8782,8.075022,50.0003Q8.120602,50.1225,8.186566,50.2349Q8.25253,50.3473,8.336899,50.4467Q8.4212681,50.5461,8.5215135,50.6294Q8.621759,50.7127,8.734875,50.7775Q8.847991,50.8423,8.970587,50.8866Q9.093182,50.9309,9.221581,50.9534Q9.34998,50.9758,9.480333,50.9758Q9.55402,50.9758,9.62736,50.9686Q9.70069,50.9614,9.77297,50.947Q9.84524,50.9326,9.91576,50.9112Q9.98628,50.8898,10.054359999999999,50.8616Q10.122440000000001,50.8334,10.187429999999999,50.7987Q10.25242,50.764,10.31369,50.723Q10.37496,50.6821,10.43192,50.6353Q10.48889,50.5886,10.54099,50.5365Q10.5931,50.4844,10.63985,50.4274Q10.6866,50.3705,10.72754,50.3092Q10.76848,50.2479,10.80321,50.1829Q10.83795,50.1179,10.866150000000001,50.0498Q10.89435,49.9818,10.91574,49.9113Q10.93713,49.8407,10.951509999999999,49.7685Q10.96589,49.6962,10.97311,49.6229Q10.98033,49.5495,10.98033,49.4758Q10.98033,49.3376,10.95505,49.2016Q10,44.0655,10,35.2083Q10,24.631,17.83495,17.14168Q25.6986,9.625,36.8333,9.625Q38.4411,9.625,41.923,10.12886Q44.4658,10.49682,45.8989,10.63382Q51.8368,11.20141,58,9.98704L58,13.54167Q58,31.5935,48.4748,41.2225Q39.834199999999996,49.9573,25.5033,49.9583L25.5,49.9583Q25.4263,49.9583,25.353,49.9656Q25.2796,49.9728,25.2074,49.9872Q25.1351,50.0015,25.0646,50.0229Q24.9941,50.0443,24.926,50.0725Q24.8579,50.1007,24.7929,50.1354Q24.7279,50.1702,24.6666,50.2111Q24.6054,50.2521,24.5484,50.2988Q24.4914,50.3456,24.4393,50.3977Q24.3872,50.4498,24.3405,50.5067Q24.2937,50.5637,24.2528,50.625Q24.2119,50.6863,24.1771,50.7512Q24.142400000000002,50.8162,24.1142,50.8843Q24.086,50.9524,24.0646,51.0229Q24.0432,51.0934,24.0288,51.1657Q24.014400000000002,51.238,24.007199999999997,51.3113Q24,51.3846,24,51.4583Q24,51.532,24.007199999999997,51.6054Q24.014400000000002,51.6787,24.0288,51.751Q24.0432,51.8232,24.0646,51.8938Q24.086,51.9643,24.1142,52.0324Q24.142400000000002,52.1004,24.1771,52.1654Q24.2119,52.2304,24.2528,52.2917Q24.2937,52.353,24.3405,52.4099Q24.3872,52.4669,24.4393,52.519Q24.4914,52.5711,24.5484,52.6179Q24.6054,52.6646,24.6666,52.7055Q24.7279,52.7465,24.7929,52.7812Q24.8579,52.816,24.926,52.8442Q24.9941,52.8724,25.0646,52.8937Q25.1351,52.9151,25.2074,52.9295Q25.2796,52.9439,25.353,52.9511Q25.4263,52.9583,25.5,52.9583Q41.0854,52.9583,50.6076,43.3323Q61,32.8266,61,13.54167L61,8.125Q61,7.94826,60.9589,7.776361Q60.9246,7.63267,60.8629,7.498439Q60.8012,7.364208,60.7145,7.244595Q60.6277,7.12498,60.5194,7.02459Q60.411,6.92419,60.2851,6.8468599999999995Q60.1592,6.76954,60.0207,6.71826Q59.8821,6.66698,59.7362,6.6437100000000004Q59.5903,6.62045,59.4427,6.6261Q59.2951,6.63174,59.1514,6.66608Q52.5133,8.252394,46.1844,7.647431Q44.8235,7.517349,42.3526,7.159787Q38.657,6.625,36.8333,6.625Q24.4954,6.625,15.76201,14.97306Q7,23.3485,7,35.2083Q7,44.3409,8.005375,49.7488L8.005577,49.7499ZM32.4891,30.2072Q32.5751,30.1583,32.6539,30.0985Q32.7327,30.0387,32.803,29.9691Q32.8733,29.8995,32.933800000000005,29.8213Q32.9944,29.743,33.0441,29.6575Q33.0938,29.572,33.1319,29.4807Q33.17,29.3894,33.1958,29.2939Q33.2215,29.1984,33.2345,29.1003Q33.2475,29.0023,33.2475,28.9033Q33.2475,28.8296,33.240300000000005,28.7563Q33.2331,28.683,33.2187,28.6107Q33.2043,28.5384,33.182900000000004,28.4679Q33.161500000000004,28.3974,33.1333,28.3293Q33.1051,28.2612,33.0704,28.1962Q33.0356,28.1313,32.9947,28.07Q32.9538,28.0087,32.907,27.9517Q32.860299999999995,27.8948,32.8082,27.8427Q32.7561,27.7906,32.6991,27.7438Q32.6421,27.6971,32.5809,27.6561Q32.5196,27.6152,32.4546,27.5805Q32.3896,27.5457,32.3215,27.5175Q32.2534,27.4893,32.182900000000004,27.4679Q32.1124,27.4465,32.040099999999995,27.4322Q31.9679,27.4178,31.8945,27.4106Q31.8212,27.4033,31.7475,27.4033Q31.3508,27.4033,31.0059,27.5995Q13.04781,37.813199999999995,12.67522,58.5685L12.66672,59.5706L12.66667,59.5833Q12.66667,59.657,12.67389,59.7304Q12.68111,59.8037,12.69549,59.876Q12.709869999999999,59.9482,12.731259999999999,60.0188Q12.75265,60.0893,12.780850000000001,60.1574Q12.80905,60.2254,12.84379,60.2904Q12.87852,60.3554,12.91946,60.4167Q12.9604,60.478,13.00715,60.5349Q13.053899999999999,60.5919,13.106010000000001,60.644Q13.15811,60.6961,13.21508,60.7429Q13.27204,60.7896,13.33331,60.8305Q13.394580000000001,60.8715,13.45957,60.9062Q13.524560000000001,60.941,13.59264,60.9692Q13.660720000000001,60.9974,13.73124,61.0187Q13.80176,61.0401,13.874030000000001,61.0545Q13.94631,61.0689,14.019639999999999,61.0761Q14.09298,61.0833,14.16667,61.0833Q14.23996,61.0833,14.312899999999999,61.0762Q14.38584,61.069,14.457740000000001,61.0548Q14.52964,61.0406,14.59981,61.0194Q14.669979999999999,60.9983,14.73775,60.9704Q14.805530000000001,60.9425,14.87025,60.9081Q14.93498,60.8737,14.99605,60.8332Q15.057120000000001,60.7927,15.113949999999999,60.7464Q15.17078,60.7001,15.222819999999999,60.6485Q15.27487,60.5969,15.321629999999999,60.5405Q15.368400000000001,60.484,15.40944,60.4233Q15.450479999999999,60.3626,15.4854,60.2981Q15.520330000000001,60.2337,15.54881,60.1662Q15.57729,60.0986,15.599039999999999,60.0286Q15.6208,59.9587,15.635629999999999,59.8869Q15.650459999999999,59.8151,15.65823,59.7422Q15.66599,59.6693,15.66661,59.5961L15.66672,59.5833L15.67511,58.594Q16.01661,39.5774,32.486599999999996,30.2086Q32.4878,30.2079,32.4891,30.2072Z" fill-rule="evenodd" fill="#40A8C4" fill-opacity="1"/></g></g></svg>